<?xml version="1.0" encoding="UTF-8" standalone="no"?>
<!-- Created with Inkscape (http://www.inkscape.org/) -->

<svg
   xmlns:dc="http://purl.org/dc/elements/1.1/"
   xmlns:cc="http://creativecommons.org/ns#"
   xmlns:rdf="http://www.w3.org/1999/02/22-rdf-syntax-ns#"
   xmlns:svg="http://www.w3.org/2000/svg"
   xmlns="http://www.w3.org/2000/svg"
   xmlns:sodipodi="http://sodipodi.sourceforge.net/DTD/sodipodi-0.dtd"
   xmlns:inkscape="http://www.inkscape.org/namespaces/inkscape"
   id="svg3049"
   version="1.1"
   inkscape:version="0.48.3.1 r9886"
   width="157.4435"
   height="131.10088"
   xml:space="preserve"
   sodipodi:docname="l_white.svg"><metadata
     id="metadata3055"><rdf:RDF><cc:Work
         rdf:about=""><dc:format>image/svg+xml</dc:format><dc:type
           rdf:resource="http://purl.org/dc/dcmitype/StillImage" /><dc:title /></cc:Work></rdf:RDF></metadata><defs
     id="defs3053"><clipPath
       clipPathUnits="userSpaceOnUse"
       id="clipPath3063"><path
         d="m 0,141.73 141.73,0 L 141.73,0 0,0 0,141.73 z"
         id="path3065"
         inkscape:connector-curvature="0" /></clipPath></defs><sodipodi:namedview
     pagecolor="#ffffff"
     bordercolor="#666666"
     borderopacity="1"
     objecttolerance="10"
     gridtolerance="10"
     guidetolerance="10"
     inkscape:pageopacity="0"
     inkscape:pageshadow="2"
     inkscape:window-width="753"
     inkscape:window-height="480"
     id="namedview3051"
     showgrid="false"
     inkscape:zoom="1.3321103"
     inkscape:cx="78.721753"
     inkscape:cy="65.550122"
     inkscape:window-x="145"
     inkscape:window-y="171"
     inkscape:window-maximized="0"
     inkscape:current-layer="g3057"
     fit-margin-top="0"
     fit-margin-left="0"
     fit-margin-right="0"
     fit-margin-bottom="0" /><g
     id="g3057"
     inkscape:groupmode="layer"
     inkscape:label="CDM_2013_logo_mini+estended"
     transform="matrix(1.25,0,0,-1.25,-9.8595,154.132)"><g
       id="g3059"
       style="fill:#ffffff;fill-opacity:1"><g
         id="g3061"
         clip-path="url(#clipPath3063)"
         style="fill:#ffffff;fill-opacity:1"><g
           id="g3067"
           transform="translate(114.9424,105.6709)"
           style="fill:#ffffff;fill-opacity:1"><path
             d="m 0,0 c 0,3.065 -2.631,5.685 -5.708,5.685 l -4.244,0 0,11.943 4.244,0 C 4.098,17.628 12.019,9.767 12.019,0 l 0,-23.733 c 1.756,-1.021 4.678,-2.927 6.881,-4.23 l 0,-13.98 -6.881,-3.645 0,-23.889 c 0,-9.894 -7.921,-17.769 -17.727,-17.769 l -4.244,0 0,12.094 4.244,0 c 3.077,0 5.708,2.618 5.708,5.675 l 0,24.914 12.307,9.758 L 0,-24.754 0,0 z"
             style="fill:#ffffff;fill-opacity:1;fill-rule:nonzero;stroke:none"
             id="path3069"
             inkscape:connector-curvature="0" /></g><g
           id="g3071"
           transform="translate(26.7856,36.0586)"
           style="fill:#ffffff;fill-opacity:1"><path
             d="m 0,0 c 0,-3.063 2.632,-5.691 5.707,-5.691 l 4.246,0 0,-11.94 -4.246,0 c -9.804,0 -17.723,7.862 -17.723,17.631 l 0,23.735 c -1.755,1.025 -4.681,2.922 -6.882,4.228 l 0,13.983 6.882,3.641 0,23.884 c 0,9.904 7.919,17.776 17.723,17.776 l 4.246,0 0,-12.094 -4.246,0 C 2.632,75.153 0,72.524 0,69.471 L 0,44.563 -12.31,34.807 0,24.76 0,0 z"
             style="fill:#ffffff;fill-opacity:1;fill-rule:nonzero;stroke:none"
             id="path3073"
             inkscape:connector-curvature="0" /></g><g
           id="g3075"
           transform="translate(58.2275,43.6768)"
           style="fill:#ffffff;fill-opacity:1"><path
             d="m 0,0 24.713,0 c 0.499,0 0.989,0.033 1.475,0.074 l 0,11.052 c -0.462,-0.174 -0.955,-0.272 -1.475,-0.272 l -19.539,0 L -0.778,0.059 C -0.516,0.045 -0.264,0 0,0"
             style="fill:#ffffff;fill-opacity:1;fill-rule:nonzero;stroke:none"
             id="path3077"
             inkscape:connector-curvature="0" /></g><g
           id="g3079"
           transform="translate(53.8647,58.8672)"
           style="fill:#ffffff;fill-opacity:1"><path
             d="m 0,0 0,6.025 8.745,0 5.588,10.134 -14.333,0 0,8.431 c 0,2.395 1.953,4.337 4.363,4.337 l 17.008,0 5.983,10.853 -22.991,0 c -8.439,0 -15.269,-6.799 -15.269,-15.19 l 0,-24.59 c 0,-6.066 3.604,-11.264 8.783,-13.688 L 3.14,-4.141 C 1.33,-3.611 0,-1.965 0,0"
             style="fill:#ffffff;fill-opacity:1;fill-rule:nonzero;stroke:none"
             id="path3081"
             inkscape:connector-curvature="0" /></g><g
           id="g3083"
           transform="translate(87.3389,97.9458)"
           style="fill:#ffffff;fill-opacity:1"><path
             d="m 0,0 -5.601,-10.152 1.203,0 c 2.411,0 4.364,-1.942 4.364,-4.333 l 0,-8.434 -12.603,0 -5.586,-10.134 29.1,0 0,3.208 0,6.926 0,8.434 C 10.877,-7.626 6.28,-1.877 0,0"
             style="fill:#ffffff;fill-opacity:1;fill-rule:nonzero;stroke:none"
             id="path3085"
             inkscape:connector-curvature="0" /></g></g></g></g></svg>