<?xml version="1.0" encoding="UTF-8" standalone="no"?>
<!-- Created with Inkscape (http://www.inkscape.org/) -->

<svg
   xmlns:dc="http://purl.org/dc/elements/1.1/"
   xmlns:cc="http://creativecommons.org/ns#"
   xmlns:rdf="http://www.w3.org/1999/02/22-rdf-syntax-ns#"
   xmlns:svg="http://www.w3.org/2000/svg"
   xmlns="http://www.w3.org/2000/svg"
   xmlns:sodipodi="http://sodipodi.sourceforge.net/DTD/sodipodi-0.dtd"
   xmlns:inkscape="http://www.inkscape.org/namespaces/inkscape"
   id="svg2"
   version="1.1"
   inkscape:version="0.48.3.1 r9886"
   width="320.41507"
   height="45"
   xml:space="preserve"
   sodipodi:docname="logo_white.svg"><metadata
     id="metadata8"><rdf:RDF><cc:Work
         rdf:about=""><dc:format>image/svg+xml</dc:format><dc:type
           rdf:resource="http://purl.org/dc/dcmitype/StillImage" /><dc:title></dc:title></cc:Work></rdf:RDF></metadata><defs
     id="defs6"><clipPath
       clipPathUnits="userSpaceOnUse"
       id="clipPath16"><path
         d="m 0,141.73 793.701,0 L 793.701,0 0,0 0,141.73 z"
         id="path18"
         inkscape:connector-curvature="0" /></clipPath></defs><sodipodi:namedview
     pagecolor="#ffffff"
     bordercolor="#666666"
     borderopacity="1"
     objecttolerance="10"
     gridtolerance="10"
     guidetolerance="10"
     inkscape:pageopacity="0"
     inkscape:pageshadow="2"
     inkscape:window-width="1855"
     inkscape:window-height="1056"
     id="namedview4"
     showgrid="false"
     fit-margin-top="0"
     fit-margin-left="0"
     fit-margin-right="0"
     fit-margin-bottom="0"
     inkscape:zoom="0.42030942"
     inkscape:cx="204.07394"
     inkscape:cy="65.550503"
     inkscape:window-x="65"
     inkscape:window-y="24"
     inkscape:window-maximized="1"
     inkscape:current-layer="g10" /><g
     id="g10"
     inkscape:groupmode="layer"
     inkscape:label="CDM_2013_logo_estended"
     transform="matrix(1.25,0,0,-1.25,-29.319501,68.03075)"><g
       id="g12"
       style="fill:#ffffff;fill-opacity:1"
       transform="matrix(0.34324517,0,0,0.34324517,15.404579,12.100445)"><g
         id="g14"
         clip-path="url(#clipPath16)"
         style="fill:#ffffff;fill-opacity:1"><g
           id="g20"
           transform="translate(751.3506,105.6709)"
           style="fill:#ffffff;fill-opacity:1"><path
             d="m 0,0 c 0,3.072 -2.634,5.69 -5.709,5.69 l -4.248,0 0,11.945 4.248,0 C 4.096,17.635 12.013,9.768 12.013,0 l 0,-23.728 c 1.761,-1.019 4.681,-2.93 6.882,-4.232 l 0,-13.978 -6.882,-3.637 0,-23.888 c 0,-9.9 -7.917,-17.777 -17.722,-17.777 l -4.248,0 0,12.096 4.248,0 c 3.075,0 5.709,2.621 5.709,5.681 l 0,24.906 12.306,9.759 L 0,-24.747 0,0 z"
             style="fill:#ffffff;fill-opacity:1;fill-rule:nonzero;stroke:none"
             id="path22"
             inkscape:connector-curvature="0" /></g><g
           id="g24"
           transform="translate(42.3496,36.0596)"
           style="fill:#ffffff;fill-opacity:1"><path
             d="m 0,0 c 0,-3.072 2.634,-5.691 5.713,-5.691 l 4.247,0 0,-11.944 -4.247,0 c -9.806,0 -17.726,7.866 -17.726,17.635 l 0,23.728 c -1.758,1.018 -4.677,2.93 -6.881,4.232 l 0,13.977 6.881,3.638 0,23.885 c 0,9.902 7.92,17.779 17.726,17.779 l 4.247,0 0,-12.095 -4.247,0 C 2.634,75.144 0,72.522 0,69.46 L 0,44.554 -12.302,34.796 0,24.746 0,0 z"
             style="fill:#ffffff;fill-opacity:1;fill-rule:nonzero;stroke:none"
             id="path26"
             inkscape:connector-curvature="0" /></g><g
           id="g28"
           transform="translate(176.8984,57.5039)"
           style="fill:#ffffff;fill-opacity:1"><path
             d="m 0,0 c 0,-0.253 -0.202,-0.451 -0.448,-0.451 l -27.805,0 c -0.243,0 -0.449,0.198 -0.449,0.451 l 0,27.649 c 0,0.243 0.206,0.45 0.449,0.45 l 27.805,0 C -0.202,28.099 0,27.892 0,27.649 L 0,0 z m -0.448,44.733 -27.805,0 c -9.49,0 -17.18,-7.652 -17.18,-17.084 l 0,-27.649 c 0,-9.439 7.69,-17.085 17.18,-17.085 l 27.805,0 c 9.483,0 17.175,7.646 17.175,17.085 l 0,27.649 c 0,9.432 -7.692,17.084 -17.175,17.084"
             style="fill:#ffffff;fill-opacity:1;fill-rule:nonzero;stroke:none"
             id="path30"
             inkscape:connector-curvature="0" /></g><g
           id="g32"
           transform="translate(106.5811,57.0371)"
           style="fill:#ffffff;fill-opacity:1"><path
             d="m 0,0 c 0,-0.242 -0.188,-0.438 -0.438,-0.438 l -27.808,0 c -0.239,0 -0.442,0.196 -0.442,0.438 l 0,27.659 c 0,0.243 0.203,0.44 0.442,0.44 l 27.808,0 c 0.25,0 0.438,-0.197 0.438,-0.44 l 0,-5.992 16.734,0 0,5.992 c 0,9.428 -7.688,17.078 -17.172,17.078 l -27.808,0 c -9.48,0 -17.175,-7.65 -17.175,-17.078 l 0,-27.659 c 0,-9.439 7.695,-17.077 17.175,-17.077 l 27.808,0 c 9.484,0 17.172,7.638 17.172,17.077 l 0,4.061 L 0,4.061 0,0 z"
             style="fill:#ffffff;fill-opacity:1;fill-rule:nonzero;stroke:none"
             id="path34"
             inkscape:connector-curvature="0" /></g><g
           id="g36"
           transform="translate(250.2256,57.0371)"
           style="fill:#ffffff;fill-opacity:1"><path
             d="m 0,0 c 0,-0.242 -0.206,-0.438 -0.447,-0.438 l -27.806,0 c -0.227,0 -0.401,0.177 -0.427,0.406 l 0,27.727 c 0.026,0.223 0.2,0.404 0.427,0.404 l 27.806,0 C -0.206,28.099 0,27.902 0,27.659 l 0,-2.119 -0.015,0 0,-23.997 L 0,1.543 0,0 z m 16.734,25.54 0,0 0,2.119 c 0,9.428 -7.692,17.078 -17.181,17.078 l -27.806,0 c -0.144,0 -0.275,-0.016 -0.427,-0.016 l 0,0.016 -16.73,0 0,-16.757 c -0.004,-0.108 -0.018,-0.213 -0.018,-0.321 l 0,-27.659 c 0,-0.105 0.014,-0.214 0.018,-0.318 l 0,-16.759 16.73,0 0,0.017 c 0.152,0 0.283,-0.017 0.427,-0.017 l 27.806,0 c 9.489,0 17.181,7.638 17.181,17.077 l 0,1.543 0,23.997 z"
             style="fill:#ffffff;fill-opacity:1;fill-rule:nonzero;stroke:none"
             id="path38"
             inkscape:connector-curvature="0" /></g><g
           id="g40"
           transform="translate(423.9355,101.7114)"
           style="fill:#ffffff;fill-opacity:1"><path
             d="m 0,0 -1.26,0 -14.144,0 -1.256,0 c -4.2,0 -8.046,-1.5 -11.025,-3.993 C -30.672,-1.5 -34.515,0 -38.716,0 l -1.255,0 -14.143,0 -1.263,0 c -9.483,0 -17.174,-7.649 -17.174,-17.085 l 0,-44.649 12.272,0 0,44.649 c 0,2.69 2.2,4.885 4.902,4.885 l 1.263,0 14.143,0 1.255,0 c 2.649,0 4.794,-2.103 4.892,-4.714 0,-0.063 -0.007,-0.115 -0.007,-0.171 l 0,-39.21 0.018,0 12.25,0 0.03,0 0,39.21 c 0,0.056 -0.015,0.108 -0.015,0.171 0.088,2.611 2.236,4.714 4.888,4.714 l 1.256,0 14.144,0 1.26,0 c 2.704,0 4.904,-2.195 4.904,-4.885 l 0,-44.649 12.269,0 0,44.649 C 17.173,-7.649 9.484,0 0,0"
             style="fill:#ffffff;fill-opacity:1;fill-rule:nonzero;stroke:none"
             id="path42"
             inkscape:connector-curvature="0" /></g><g
           id="g44"
           transform="translate(710.3633,101.9951)"
           style="fill:#ffffff;fill-opacity:1"><path
             d="m 0,0 -7.646,0 -7.749,0 -7.654,0 c -9.486,0 -17.175,-7.647 -17.175,-17.076 l 0,-44.659 12.269,0 0,44.659 c 0,2.69 2.2,4.874 4.906,4.874 l 7.654,0 7.749,0 7.646,0 c 2.707,0 4.91,-2.184 4.91,-4.874 l 0,-44.566 12.275,0 0,44.566 C 17.185,-7.647 9.488,0 0,0"
             style="fill:#ffffff;fill-opacity:1;fill-rule:nonzero;stroke:none"
             id="path46"
             inkscape:connector-curvature="0" /></g><g
           id="g48"
           transform="translate(500.4053,57.5361)"
           style="fill:#ffffff;fill-opacity:1"><path
             d="M 0,0 0,-0.238 C 0,-2.93 -2.2,-5.123 -4.903,-5.123 l -27.812,0 c -2.705,0 -4.898,2.193 -4.898,4.885 l 0,27.657 c 0,2.687 2.193,4.871 4.898,4.871 l 27.812,0 C -2.2,32.29 0,30.106 0,27.419 L 0,10.134 0,0 z m -4.903,44.495 -27.812,0 c -9.483,0 -17.175,-7.643 -17.175,-17.076 l 0,-27.657 c 0,-9.429 7.692,-17.081 17.175,-17.081 l 27.812,0 c 9.479,0 17.177,7.652 17.177,17.081 l 0,0.238 0,10.134 0,17.285 c 0,9.433 -7.698,17.076 -17.177,17.076"
             style="fill:#ffffff;fill-opacity:1;fill-rule:nonzero;stroke:none"
             id="path50"
             inkscape:connector-curvature="0" /></g><g
           id="g52"
           transform="translate(648.4131,57.5361)"
           style="fill:#ffffff;fill-opacity:1"><path
             d="M 0,0 0,-0.238 C 0,-2.93 -2.19,-5.123 -4.899,-5.123 l -27.805,0 c -2.702,0 -4.906,2.193 -4.906,4.885 l 0,27.657 c 0,2.687 2.204,4.871 4.906,4.871 l 27.805,0 C -2.19,32.29 0,30.106 0,27.419 L 0,10.134 0,0 z m -4.899,44.495 -27.805,0 c -9.484,0 -17.177,-7.643 -17.177,-17.076 l 0,-27.657 c 0,-9.429 7.693,-17.081 17.177,-17.081 l 27.805,0 c 9.483,0 17.179,7.652 17.179,17.081 l 0,0.238 0,10.134 0,17.285 c 0,9.433 -7.696,17.076 -17.179,17.076"
             style="fill:#ffffff;fill-opacity:1;fill-rule:nonzero;stroke:none"
             id="path54"
             inkscape:connector-curvature="0" /></g><g
           id="g56"
           transform="translate(538.8721,52.0947)"
           style="fill:#ffffff;fill-opacity:1"><path
             d="m 0,0 c -2.705,0 -4.898,2.189 -4.898,4.881 l 0,19.116 20.044,0 0,13.461 -20.044,0 0,18.514 c 0,0.028 0.006,0.049 0.006,0.088 l -12.283,0 0,-0.088 0,-51.091 c 0,-9.433 7.689,-17.082 17.175,-17.082 l 27.61,0 L 27.61,0 0,0 z"
             style="fill:#ffffff;fill-opacity:1;fill-rule:nonzero;stroke:none"
             id="path58"
             inkscape:connector-curvature="0" /></g><path
           d="m 588.594,39.833 -12.553,0 0,59.06 12.553,0 0,-59.06 z"
           style="fill:#ffffff;fill-opacity:1;fill-rule:nonzero;stroke:none"
           id="path60"
           inkscape:connector-curvature="0" /><g
           id="g62"
           transform="translate(296.3242,40.166)"
           style="fill:#ffffff;fill-opacity:1"><path
             d="m 0,0 27.797,0 c 0.562,0 1.115,0.036 1.657,0.083 l 0,12.431 c -0.518,-0.195 -1.067,-0.307 -1.657,-0.307 l -21.976,0 L -0.874,0.065 C -0.579,0.051 -0.296,0 0,0"
             style="fill:#ffffff;fill-opacity:1;fill-rule:nonzero;stroke:none"
             id="path64"
             inkscape:connector-curvature="0" /></g><g
           id="g66"
           transform="translate(291.418,57.251)"
           style="fill:#ffffff;fill-opacity:1"><path
             d="m 0,0 0,6.778 9.837,0 6.285,11.399 -16.122,0 0,9.481 c 0,2.694 2.196,4.878 4.906,4.878 l 19.132,0 6.73,12.208 -25.862,0 c -9.49,0 -17.172,-7.647 -17.172,-17.086 l 0,-27.658 c 0,-6.824 4.053,-12.668 9.878,-15.396 L 3.531,-4.657 C 1.497,-4.062 0,-2.21 0,0"
             style="fill:#ffffff;fill-opacity:1;fill-rule:nonzero;stroke:none"
             id="path68"
             inkscape:connector-curvature="0" /></g><g
           id="g70"
           transform="translate(329.0674,101.2046)"
           style="fill:#ffffff;fill-opacity:1"><path
             d="m 0,0 -6.299,-11.418 1.353,0 c 2.714,0 4.91,-2.184 4.91,-4.874 l 0,-9.485 -14.178,0 -6.282,-11.398 32.733,0 0,3.607 0,7.791 0,9.485 C 12.237,-8.577 7.068,-2.111 0,0"
             style="fill:#ffffff;fill-opacity:1;fill-rule:nonzero;stroke:none"
             id="path72"
             inkscape:connector-curvature="0" /></g></g></g></g></svg>